<svg width="256" height="256" viewBox="0 0 256 256" fill="none" xmlns="http://www.w3.org/2000/svg">
    <g clip-path="url(#clip0_35_2)">
        <rect width="256" height="256" rx="32" fill="#88DEFA"/>
        <path d="M23.7386 34.3068V16.6364H116.58V34.3068H80.6136V133H59.7045V34.3068H23.7386ZM207.276 53.7955C206.329 50.7273 205.022 47.9811 203.355 45.5568C201.726 43.0947 199.757 40.9924 197.446 39.25C195.173 37.5076 192.56 36.2008 189.605 35.3295C186.651 34.4205 183.431 33.9659 179.946 33.9659C173.696 33.9659 168.128 35.5379 163.241 38.6818C158.355 41.8258 154.51 46.447 151.707 52.5455C148.942 58.6061 147.56 65.9924 147.56 74.7045C147.56 83.4924 148.942 90.9356 151.707 97.0341C154.473 103.133 158.317 107.773 163.241 110.955C168.166 114.098 173.885 115.67 180.401 115.67C186.31 115.67 191.423 114.534 195.741 112.261C200.098 109.989 203.45 106.769 205.798 102.602C208.147 98.3977 209.321 93.4735 209.321 87.8295L214.094 88.5682H182.503V72.0909H229.719V86.0682C229.719 96.0303 227.598 104.648 223.355 111.92C219.113 119.193 213.279 124.799 205.855 128.739C198.431 132.64 189.908 134.591 180.287 134.591C169.567 134.591 160.154 132.186 152.048 127.375C143.98 122.527 137.673 115.652 133.128 106.75C128.62 97.8106 126.366 87.2045 126.366 74.9318C126.366 65.5379 127.692 57.1477 130.344 49.7614C133.033 42.375 136.783 36.1061 141.594 30.9545C146.404 25.7651 152.048 21.8258 158.526 19.1364C165.003 16.4091 172.048 15.0455 179.662 15.0455C186.101 15.0455 192.105 15.9924 197.673 17.8864C203.241 19.7424 208.185 22.3939 212.503 25.8409C216.859 29.2879 220.438 33.3788 223.241 38.1136C226.045 42.8485 227.882 48.0758 228.753 53.7955H207.276Z"
              fill="#4823D9"/>
        <rect x="26" y="153" width="128" height="32" fill="#02A3D6"/>
        <rect x="26" y="202" width="128" height="32" fill="#02A3D6"/>
        <rect x="171.536" y="164" width="30.4667" height="8" rx="4" transform="rotate(45 171.536 164)" fill="#41AD3F"/>
        <rect x="182.834" y="186.758" width="54.3573" height="8" rx="4" transform="rotate(-51 182.834 186.758)"
              fill="#41AD3F"/>
        <rect x="169" y="234.071" width="54.0252" height="8" rx="4" transform="rotate(-45 169 234.071)" fill="#E30000"/>
        <rect x="174.657" y="195.87" width="54.0252" height="8" rx="4" transform="rotate(45 174.657 195.87)"
              fill="#E30000"/>
    </g>
    <defs>
        <clipPath id="clip0_35_2">
            <rect width="256" height="256" fill="white"/>
        </clipPath>
    </defs>
</svg>
