<svg width="24" height="24" viewBox="0 0 24 24" fill="none" xmlns="http://www.w3.org/2000/svg">
<path d="M7.375 7.73633C7.375 8.2793 7.3125 8.76172 7.1875 9.18359C7.0625 9.60156 6.88281 9.95312 6.64844 10.2383C6.41406 10.5273 6.12695 10.7461 5.78711 10.8945C5.44727 11.043 5.05859 11.1172 4.62109 11.1172C4.1875 11.1172 3.79883 11.0449 3.45508 10.9004C3.11133 10.752 2.82031 10.5312 2.58203 10.2383C2.34375 9.95312 2.16211 9.60156 2.03711 9.18359C1.91211 8.76172 1.84961 8.2793 1.84961 7.73633V5.73828C1.84961 5.19531 1.91211 4.71484 2.03711 4.29688C2.16211 3.875 2.34375 3.51953 2.58203 3.23047C2.81641 2.94141 3.10352 2.72266 3.44336 2.57422C3.78711 2.42188 4.17578 2.3457 4.60938 2.3457C5.04688 2.3457 5.43555 2.42188 5.77539 2.57422C6.11914 2.72266 6.41016 2.94141 6.64844 3.23047C6.88281 3.51953 7.0625 3.875 7.1875 4.29688C7.3125 4.71484 7.375 5.19531 7.375 5.73828V7.73633ZM2.93945 7.51953L6.26172 4.9707C6.23047 4.68945 6.17383 4.44141 6.0918 4.22656C6.01367 4.00781 5.90625 3.82617 5.76953 3.68164C5.63672 3.5332 5.47266 3.42188 5.27734 3.34766C5.08594 3.27344 4.86328 3.23633 4.60938 3.23633C4.35156 3.23633 4.12305 3.27734 3.92383 3.35938C3.72852 3.4375 3.5625 3.55273 3.42578 3.70508C3.26172 3.89648 3.13867 4.14453 3.05664 4.44922C2.97852 4.75 2.93945 5.09961 2.93945 5.49805V6.92773C2.93945 7.02539 2.93945 7.12305 2.93945 7.2207C2.93945 7.31836 2.93945 7.41797 2.93945 7.51953ZM6.28516 7.96484V6.75781C6.28516 6.69922 6.28516 6.58789 6.28516 6.42383C6.28516 6.25586 6.28516 6.11719 6.28516 6.00781L2.96875 8.54492C3.00391 8.83008 3.06641 9.08203 3.15625 9.30078C3.24609 9.51562 3.36328 9.69336 3.50781 9.83398C3.64062 9.9668 3.80078 10.0684 3.98828 10.1387C4.17578 10.2051 4.38672 10.2383 4.62109 10.2383C4.86719 10.2383 5.08594 10.2012 5.27734 10.127C5.46875 10.0527 5.63086 9.94531 5.76367 9.80469C5.94336 9.61328 6.07422 9.36328 6.15625 9.05469C6.24219 8.74609 6.28516 8.38281 6.28516 7.96484ZM12.7422 11H11.6582V3.85156L9.42578 4.70117V3.71094L12.6543 2.46875H12.7422V11ZM21.7891 7.73633C21.7891 8.2793 21.7266 8.76172 21.6016 9.18359C21.4766 9.60156 21.2969 9.95312 21.0625 10.2383C20.8281 10.5273 20.541 10.7461 20.2012 10.8945C19.8613 11.043 19.4727 11.1172 19.0352 11.1172C18.6016 11.1172 18.2129 11.0449 17.8691 10.9004C17.5254 10.752 17.2344 10.5312 16.9961 10.2383C16.7578 9.95312 16.5762 9.60156 16.4512 9.18359C16.3262 8.76172 16.2637 8.2793 16.2637 7.73633V5.73828C16.2637 5.19531 16.3262 4.71484 16.4512 4.29688C16.5762 3.875 16.7578 3.51953 16.9961 3.23047C17.2305 2.94141 17.5176 2.72266 17.8574 2.57422C18.2012 2.42188 18.5898 2.3457 19.0234 2.3457C19.4609 2.3457 19.8496 2.42188 20.1895 2.57422C20.5332 2.72266 20.8242 2.94141 21.0625 3.23047C21.2969 3.51953 21.4766 3.875 21.6016 4.29688C21.7266 4.71484 21.7891 5.19531 21.7891 5.73828V7.73633ZM17.3535 7.51953L20.6758 4.9707C20.6445 4.68945 20.5879 4.44141 20.5059 4.22656C20.4277 4.00781 20.3203 3.82617 20.1836 3.68164C20.0508 3.5332 19.8867 3.42188 19.6914 3.34766C19.5 3.27344 19.2773 3.23633 19.0234 3.23633C18.7656 3.23633 18.5371 3.27734 18.3379 3.35938C18.1426 3.4375 17.9766 3.55273 17.8398 3.70508C17.6758 3.89648 17.5527 4.14453 17.4707 4.44922C17.3926 4.75 17.3535 5.09961 17.3535 5.49805V6.92773C17.3535 7.02539 17.3535 7.12305 17.3535 7.2207C17.3535 7.31836 17.3535 7.41797 17.3535 7.51953ZM20.6992 7.96484V6.75781C20.6992 6.69922 20.6992 6.58789 20.6992 6.42383C20.6992 6.25586 20.6992 6.11719 20.6992 6.00781L17.3828 8.54492C17.418 8.83008 17.4805 9.08203 17.5703 9.30078C17.6602 9.51562 17.7773 9.69336 17.9219 9.83398C18.0547 9.9668 18.2148 10.0684 18.4023 10.1387C18.5898 10.2051 18.8008 10.2383 19.0352 10.2383C19.2812 10.2383 19.5 10.2012 19.6914 10.127C19.8828 10.0527 20.0449 9.94531 20.1777 9.80469C20.3574 9.61328 20.4883 9.36328 20.5703 9.05469C20.6562 8.74609 20.6992 8.38281 20.6992 7.96484ZM5.53516 22H4.45117V14.8516L2.21875 15.7012V14.7109L5.44727 13.4688H5.53516V22ZM14.582 18.7363C14.582 19.2793 14.5195 19.7617 14.3945 20.1836C14.2695 20.6016 14.0898 20.9531 13.8555 21.2383C13.6211 21.5273 13.334 21.7461 12.9941 21.8945C12.6543 22.043 12.2656 22.1172 11.8281 22.1172C11.3945 22.1172 11.0059 22.0449 10.6621 21.9004C10.3184 21.752 10.0273 21.5312 9.78906 21.2383C9.55078 20.9531 9.36914 20.6016 9.24414 20.1836C9.11914 19.7617 9.05664 19.2793 9.05664 18.7363V16.7383C9.05664 16.1953 9.11914 15.7148 9.24414 15.2969C9.36914 14.875 9.55078 14.5195 9.78906 14.2305C10.0234 13.9414 10.3105 13.7227 10.6504 13.5742C10.9941 13.4219 11.3828 13.3457 11.8164 13.3457C12.2539 13.3457 12.6426 13.4219 12.9824 13.5742C13.3262 13.7227 13.6172 13.9414 13.8555 14.2305C14.0898 14.5195 14.2695 14.875 14.3945 15.2969C14.5195 15.7148 14.582 16.1953 14.582 16.7383V18.7363ZM10.1465 18.5195L13.4688 15.9707C13.4375 15.6895 13.3809 15.4414 13.2988 15.2266C13.2207 15.0078 13.1133 14.8262 12.9766 14.6816C12.8438 14.5332 12.6797 14.4219 12.4844 14.3477C12.293 14.2734 12.0703 14.2363 11.8164 14.2363C11.5586 14.2363 11.3301 14.2773 11.1309 14.3594C10.9355 14.4375 10.7695 14.5527 10.6328 14.7051C10.4688 14.8965 10.3457 15.1445 10.2637 15.4492C10.1855 15.75 10.1465 16.0996 10.1465 16.498V17.9277C10.1465 18.0254 10.1465 18.123 10.1465 18.2207C10.1465 18.3184 10.1465 18.418 10.1465 18.5195ZM13.4922 18.9648V17.7578C13.4922 17.6992 13.4922 17.5879 13.4922 17.4238C13.4922 17.2559 13.4922 17.1172 13.4922 17.0078L10.1758 19.5449C10.2109 19.8301 10.2734 20.082 10.3633 20.3008C10.4531 20.5156 10.5703 20.6934 10.7148 20.834C10.8477 20.9668 11.0078 21.0684 11.1953 21.1387C11.3828 21.2051 11.5938 21.2383 11.8281 21.2383C12.0742 21.2383 12.293 21.2012 12.4844 21.127C12.6758 21.0527 12.8379 20.9453 12.9707 20.8047C13.1504 20.6133 13.2812 20.3633 13.3633 20.0547C13.4492 19.7461 13.4922 19.3828 13.4922 18.9648ZM19.9492 22H18.8652V14.8516L16.6328 15.7012V14.7109L19.8613 13.4688H19.9492V22Z" fill="black"/>
</svg>
