<svg width="24" height="24" viewBox="0 0 24 24" fill="none" xmlns="http://www.w3.org/2000/svg">
<path d="M2.97372 6.78867L12 1.57735L21.0263 6.78867V17.2113L12 22.4227L2.97372 17.2113V6.78867Z" stroke="black"/>
<path d="M16.7727 10H15.3636C15.2803 9.5947 15.1345 9.23864 14.9261 8.93182C14.7216 8.625 14.4716 8.36742 14.1761 8.15909C13.8845 7.94697 13.5606 7.78788 13.2045 7.68182C12.8485 7.57576 12.4773 7.52273 12.0909 7.52273C11.3864 7.52273 10.7481 7.70076 10.1761 8.05682C9.60795 8.41288 9.1553 8.9375 8.81818 9.63068C8.48485 10.3239 8.31818 11.1742 8.31818 12.1818C8.31818 13.1894 8.48485 14.0398 8.81818 14.733C9.1553 15.4261 9.60795 15.9508 10.1761 16.3068C10.7481 16.6629 11.3864 16.8409 12.0909 16.8409C12.4773 16.8409 12.8485 16.7879 13.2045 16.6818C13.5606 16.5758 13.8845 16.4186 14.1761 16.2102C14.4716 15.9981 14.7216 15.7386 14.9261 15.4318C15.1345 15.1212 15.2803 14.7652 15.3636 14.3636H16.7727C16.6667 14.9583 16.4735 15.4905 16.1932 15.9602C15.9129 16.4299 15.5644 16.8295 15.1477 17.1591C14.7311 17.4848 14.2633 17.733 13.7443 17.9034C13.2292 18.0739 12.678 18.1591 12.0909 18.1591C11.0985 18.1591 10.2159 17.9167 9.44318 17.4318C8.67045 16.947 8.0625 16.2576 7.61932 15.3636C7.17614 14.4697 6.95455 13.4091 6.95455 12.1818C6.95455 10.9545 7.17614 9.89394 7.61932 9C8.0625 8.10606 8.67045 7.41667 9.44318 6.93182C10.2159 6.44697 11.0985 6.20455 12.0909 6.20455C12.678 6.20455 13.2292 6.28977 13.7443 6.46023C14.2633 6.63068 14.7311 6.88068 15.1477 7.21023C15.5644 7.53598 15.9129 7.93371 16.1932 8.40341C16.4735 8.86932 16.6667 9.40151 16.7727 10Z" fill="black"/>
</svg>
