<svg width="24" height="24" viewBox="0 0 24 24" fill="none" xmlns="http://www.w3.org/2000/svg">
<rect x="1.5" y="5.5" width="11" height="11" rx="2.5" stroke="black"/>
<path d="M4.5 5.5V3.5C4.5 1.84315 5.84315 0.5 7.5 0.5H12" stroke="black"/>
<path d="M21.5 11V7.74264C21.5 6.94699 21.1839 6.18393 20.6213 5.62132L16.3787 1.37868C15.8161 0.816071 15.053 0.5 14.2574 0.5H12" stroke="black"/>
<path d="M14 0.5V5C14 6.65685 15.3431 8 17 8H21.5" stroke="black"/>
<path d="M4.45561 15L2.46697 7.72727H3.36186L4.88175 13.6506H4.95277L6.50107 7.72727H7.49538L9.04368 13.6506H9.1147L10.6346 7.72727H11.5295L9.54084 15H8.63175L7.02663 9.20455H6.96982L5.3647 15H4.45561Z" fill="black"/>
<path d="M4.5 16.5V20.5C4.5 22.1569 5.84315 23.5 7.5 23.5H18.5C20.1569 23.5 21.5 22.1569 21.5 20.5V10.5" stroke="black"/>
</svg>
