<svg width="24" height="24" viewBox="0 0 24 24" fill="none" xmlns="http://www.w3.org/2000/svg">
<path d="M23 3H21.5M23 9H21.5M21.5 9H4.5C2.84315 9 1.5 7.65685 1.5 6V6C1.5 4.34315 2.84315 3 4.5 3H21.5M21.5 9L20.8944 7.78885C20.3314 6.66274 20.3314 5.33726 20.8944 4.21115L21.5 3" stroke="black"/>
<path d="M23 15H21.5M23 21H21.5M21.5 21H4.5C2.84315 21 1.5 19.6569 1.5 18V18C1.5 16.3431 2.84315 15 4.5 15H21.5M21.5 21L20.8944 19.7889C20.3314 18.6627 20.3314 17.3373 20.8944 16.2111L21.5 15" stroke="black"/>
<path d="M23 9H21.5M23 15H21.5M21.5 15H4.5C2.84315 15 1.5 13.6569 1.5 12V12C1.5 10.3431 2.84315 9 4.5 9H21.5M21.5 15L20.8944 13.7889C20.3314 12.6627 20.3314 11.3373 20.8944 10.2111L21.5 9" stroke="black"/>
</svg>
