<svg width="24" height="24" viewBox="0 0 24 24" fill="none" xmlns="http://www.w3.org/2000/svg">
<path d="M20.5 8.5V7.90512C20.5 7.01479 20.1045 6.17044 19.4206 5.60046L15.3344 2.19534C14.7953 1.74605 14.1157 1.5 13.4139 1.5H6.5C4.84315 1.5 3.5 2.84315 3.5 4.5V8.5M20.5 19.5V19.5C20.5 21.1569 19.1569 22.5 17.5 22.5H6.5C4.84315 22.5 3.5 21.1569 3.5 19.5V19.5" stroke="black"/>
<rect x="1.5" y="8.5" width="21" height="11" rx="2.5" stroke="black"/>
<path d="M4.06068 17V10.4545H6.27233C6.78582 10.4545 7.20557 10.5472 7.53156 10.7326C7.85969 10.9158 8.10258 11.1641 8.26025 11.4773C8.41792 11.7905 8.49676 12.1399 8.49676 12.5256C8.49676 12.9112 8.41792 13.2617 8.26025 13.5771C8.10471 13.8924 7.86395 14.1438 7.53795 14.3313C7.21196 14.5167 6.79434 14.6094 6.28511 14.6094H4.69988V13.9062H6.25954C6.61111 13.9062 6.89342 13.8455 7.10649 13.7241C7.31956 13.6026 7.47403 13.4386 7.56991 13.2319C7.66792 13.0231 7.71693 12.7876 7.71693 12.5256C7.71693 12.2635 7.66792 12.0291 7.56991 11.8224C7.47403 11.6158 7.31849 11.4538 7.10329 11.3366C6.88809 11.2173 6.60258 11.1577 6.24676 11.1577H4.85329V17H4.06068ZM11.7935 17H9.77357V10.4545H11.8829C12.5179 10.4545 13.0612 10.5856 13.5129 10.8477C13.9646 11.1076 14.3109 11.4815 14.5516 11.9695C14.7924 12.4553 14.9128 13.0369 14.9128 13.7145C14.9128 14.3963 14.7913 14.9833 14.5484 15.4755C14.3055 15.9656 13.9518 16.3427 13.4873 16.6069C13.0229 16.869 12.4582 17 11.7935 17ZM10.5662 16.2969H11.7423C12.2835 16.2969 12.732 16.1925 13.0878 15.9837C13.4437 15.7749 13.7089 15.4776 13.8837 15.092C14.0584 14.7063 14.1457 14.2472 14.1457 13.7145C14.1457 13.1861 14.0594 12.7312 13.8869 12.3498C13.7143 11.9663 13.4565 11.6722 13.1134 11.4677C12.7704 11.261 12.3432 11.1577 11.8318 11.1577H10.5662V16.2969ZM16.2423 17V10.4545H20.167V11.1577H17.0349V13.3693H19.873V14.0724H17.0349V17H16.2423Z" fill="black"/>
</svg>
