<svg width="24" height="24" viewBox="0 0 24 24" fill="none" xmlns="http://www.w3.org/2000/svg">
<path d="M1.62358 8.50852V7.72727H7.07812V8.50852H4.79119V15H3.91051V8.50852H1.62358ZM12.1909 14.5455L11.644 14.0057L13.8954 11.7543H8.06445V10.973H13.8954L11.644 8.72869L12.1909 8.18182L15.3727 11.3636L12.1909 14.5455ZM17.2362 15V7.72727H19.7788C20.2854 7.72727 20.7032 7.81487 21.0323 7.99006C21.3614 8.16288 21.6064 8.39607 21.7674 8.68963C21.9284 8.98082 22.0089 9.30398 22.0089 9.65909C22.0089 9.97159 21.9532 10.2296 21.842 10.4332C21.7331 10.6368 21.5887 10.7978 21.4087 10.9162C21.2312 11.0346 21.0382 11.1222 20.8299 11.179V11.25C21.0524 11.2642 21.2762 11.3423 21.5011 11.4844C21.726 11.6264 21.9142 11.83 22.0657 12.0952C22.2172 12.3603 22.293 12.6847 22.293 13.0682C22.293 13.4328 22.2101 13.7607 22.0444 14.0518C21.8787 14.343 21.6171 14.5739 21.2596 14.7443C20.9021 14.9148 20.4369 15 19.864 15H17.2362ZM18.1168 14.2188H19.864C20.4393 14.2188 20.8477 14.1075 21.0891 13.8849C21.333 13.66 21.4549 13.3878 21.4549 13.0682C21.4549 12.822 21.3922 12.5947 21.2667 12.3864C21.1412 12.1757 20.9625 12.0076 20.7305 11.8821C20.4985 11.7543 20.2238 11.6903 19.9066 11.6903H18.1168V14.2188ZM18.1168 10.9233H19.7504C20.0155 10.9233 20.2546 10.8712 20.4677 10.767C20.6831 10.6629 20.8536 10.5161 20.979 10.3267C21.1069 10.1373 21.1708 9.91477 21.1708 9.65909C21.1708 9.33949 21.0595 9.06842 20.837 8.84588C20.6145 8.62098 20.2617 8.50852 19.7788 8.50852H18.1168V10.9233Z" fill="black"/>
<rect x="0.5" y="4.5" width="23" height="14" rx="2.5" stroke="black"/>
</svg>
