<svg width="24" height="24" viewBox="0 0 24 24" fill="none" xmlns="http://www.w3.org/2000/svg">
<path d="M1.40412 8.39205V6.36364H10.9609V8.39205H7.39844V18H4.96662V8.39205H1.40412ZM19.7195 10.125C19.6399 9.84848 19.5282 9.60417 19.3842 9.39205C19.2403 9.17614 19.0642 8.99432 18.8558 8.84659C18.6513 8.69508 18.4164 8.57955 18.1513 8.5C17.8899 8.42045 17.6001 8.38068 17.282 8.38068C16.6873 8.38068 16.1645 8.52841 15.7138 8.82386C15.2668 9.11932 14.9183 9.54924 14.6683 10.1136C14.4183 10.6742 14.2933 11.3598 14.2933 12.1705C14.2933 12.9811 14.4164 13.6705 14.6626 14.2386C14.9089 14.8068 15.2573 15.2405 15.7081 15.5398C16.1589 15.8352 16.6911 15.983 17.3047 15.983C17.8615 15.983 18.3369 15.8845 18.7308 15.6875C19.1286 15.4867 19.4316 15.2045 19.6399 14.8409C19.852 14.4773 19.9581 14.0473 19.9581 13.5511L20.4581 13.625H17.4581V11.7727H22.3274V13.2386C22.3274 14.2614 22.1115 15.1402 21.6797 15.875C21.2479 16.6061 20.6532 17.1705 19.8956 17.5682C19.138 17.9621 18.2706 18.1591 17.2933 18.1591C16.2024 18.1591 15.2441 17.9186 14.4183 17.4375C13.5926 16.9527 12.9486 16.2652 12.4865 15.375C12.0282 14.4811 11.799 13.4205 11.799 12.1932C11.799 11.25 11.9354 10.4091 12.2081 9.67045C12.4846 8.92803 12.871 8.29924 13.3672 7.78409C13.8634 7.26894 14.4411 6.87689 15.1001 6.60795C15.7592 6.33901 16.4732 6.20455 17.2422 6.20455C17.9013 6.20455 18.5149 6.30114 19.0831 6.49432C19.6513 6.68371 20.1551 6.95265 20.5945 7.30114C21.0376 7.64962 21.3994 8.06439 21.6797 8.54545C21.96 9.02273 22.1399 9.54924 22.2195 10.125H19.7195Z" fill="black"/>
</svg>
