<svg width="24" height="24" viewBox="0 0 24 24" fill="none" xmlns="http://www.w3.org/2000/svg">
<g clip-path="url(#clip0_40_2)">
<path d="M6.40116 17L5.75316 14.684H2.93316L2.28516 17H1.03716L3.54516 8.624H5.16516L7.68516 17H6.40116ZM4.67316 11L4.40916 9.776H4.25316L3.98916 11L3.24516 13.64H5.45316L4.67316 11ZM11.1256 17.144C10.5016 17.144 9.95759 17.028 9.49359 16.796C9.03759 16.556 8.64559 16.212 8.31759 15.764L9.19359 14.96C9.44159 15.304 9.72559 15.568 10.0456 15.752C10.3656 15.936 10.7296 16.028 11.1376 16.028C12.1296 16.028 12.6256 15.572 12.6256 14.66C12.6256 14.292 12.5376 14.012 12.3616 13.82C12.1856 13.62 11.8816 13.468 11.4496 13.364L10.7656 13.22C10.0136 13.052 9.45759 12.784 9.09759 12.416C8.74559 12.04 8.56959 11.516 8.56959 10.844C8.56959 10.068 8.80159 9.48 9.26559 9.08C9.73759 8.68 10.3936 8.48 11.2336 8.48C11.8336 8.48 12.3376 8.584 12.7456 8.792C13.1616 8.992 13.5216 9.308 13.8256 9.74L12.9496 10.508C12.7336 10.204 12.4896 9.976 12.2176 9.824C11.9536 9.672 11.6176 9.596 11.2096 9.596C10.7536 9.596 10.4096 9.692 10.1776 9.884C9.95359 10.068 9.84159 10.376 9.84159 10.808C9.84159 11.16 9.92959 11.428 10.1056 11.612C10.2896 11.788 10.5856 11.924 10.9936 12.02L11.6776 12.176C12.0776 12.264 12.4176 12.376 12.6976 12.512C12.9776 12.64 13.2056 12.8 13.3816 12.992C13.5656 13.184 13.6976 13.412 13.7776 13.676C13.8576 13.932 13.8976 14.232 13.8976 14.576C13.8976 15.416 13.6536 16.056 13.1656 16.496C12.6856 16.928 12.0056 17.144 11.1256 17.144ZM21.0626 11.84L21.1466 10.412H21.0026L20.4266 11.816L18.7946 15.224L17.1746 11.816L16.5986 10.436H16.4546L16.5386 11.84V17H15.3146V8.624H16.8146L18.1706 11.552L18.7586 13.208H18.8666L19.4546 11.552L20.7986 8.624H22.2866V17H21.0626V11.84Z" fill="black"/>
</g>
<defs>
<clipPath id="clip0_40_2">
<rect width="24" height="24" fill="white"/>
</clipPath>
</defs>
</svg>
