<svg width="24" height="24" viewBox="0 0 24 24" fill="none" xmlns="http://www.w3.org/2000/svg">
<path d="M11.375 1.22687C11.7618 1.00358 12.2382 1.00358 12.625 1.22687L21.0173 6.07217C21.4041 6.29546 21.6423 6.70812 21.6423 7.1547V16.8453C21.6423 17.2919 21.4041 17.7045 21.0173 17.9278L12.625 22.7731C12.2382 22.9964 11.7618 22.9964 11.375 22.7731L2.9827 17.9278C2.59594 17.7045 2.3577 17.2919 2.3577 16.8453V7.1547C2.3577 6.70812 2.59594 6.29546 2.9827 6.07217L11.375 1.22687Z" stroke="black" stroke-width="1.5"/>
<path d="M18.1306 9.8441H15.6072C15.5352 9.43028 15.4025 9.06368 15.2091 8.74432C15.0157 8.42045 14.7751 8.14607 14.4872 7.92116C14.1993 7.69626 13.8709 7.52758 13.5021 7.41513C13.1377 7.29818 12.7442 7.2397 12.3213 7.2397C11.5701 7.2397 10.9044 7.42862 10.3242 7.80646C9.74392 8.17981 9.28961 8.72857 8.96125 9.45277C8.63289 10.1725 8.46871 11.0518 8.46871 12.0909C8.46871 13.148 8.63289 14.0386 8.96125 14.7628C9.29411 15.4825 9.74842 16.0268 10.3242 16.3956C10.9044 16.7599 11.5679 16.9421 12.3146 16.9421C12.7284 16.9421 13.1152 16.8881 13.4751 16.7802C13.8394 16.6677 14.1656 16.5036 14.4534 16.2876C14.7458 16.0717 14.991 15.8063 15.1889 15.4915C15.3913 15.1766 15.5307 14.8168 15.6072 14.4119L18.1306 14.4254C18.0362 15.0821 17.8315 15.6984 17.5166 16.2741C17.2063 16.8499 16.7992 17.3582 16.2954 17.799C15.7916 18.2353 15.2024 18.5772 14.5277 18.8246C13.8529 19.0675 13.104 19.1889 12.2809 19.1889C11.0664 19.1889 9.98232 18.9078 9.02872 18.3455C8.07512 17.7833 7.32394 16.9714 6.77517 15.9098C6.2264 14.8482 5.95202 13.5753 5.95202 12.0909C5.95202 10.602 6.22865 9.32907 6.78192 8.27202C7.33518 7.21046 8.08862 6.39856 9.04221 5.83629C9.99581 5.27403 11.0754 4.9929 12.2809 4.9929C13.05 4.9929 13.7652 5.10085 14.4264 5.31676C15.0877 5.53267 15.6769 5.84979 16.1942 6.26811C16.7115 6.68194 17.1366 7.19022 17.4694 7.79297C17.8068 8.39122 18.0272 9.07493 18.1306 9.8441Z" fill="black"/>
</svg>
