<svg width="24" height="24" viewBox="0 0 24 24" fill="none" xmlns="http://www.w3.org/2000/svg">
<path d="M16.6306 9.8441H14.1072C14.0352 9.43028 13.9025 9.06368 13.7091 8.74432C13.5157 8.42045 13.2751 8.14607 12.9872 7.92116C12.6993 7.69626 12.3709 7.52758 12.0021 7.41513C11.6377 7.29818 11.2442 7.2397 10.8213 7.2397C10.0701 7.2397 9.40443 7.42862 8.82417 7.80646C8.24392 8.17981 7.78961 8.72857 7.46125 9.45277C7.13289 10.1725 6.96871 11.0518 6.96871 12.0909C6.96871 13.148 7.13289 14.0386 7.46125 14.7628C7.79411 15.4825 8.24842 16.0268 8.82417 16.3956C9.40443 16.7599 10.0679 16.9421 10.8146 16.9421C11.2284 16.9421 11.6152 16.8881 11.9751 16.7802C12.3394 16.6677 12.6656 16.5036 12.9534 16.2876C13.2458 16.0717 13.491 15.8063 13.6889 15.4915C13.8913 15.1766 14.0307 14.8168 14.1072 14.4119L16.6306 14.4254C16.5362 15.0821 16.3315 15.6984 16.0166 16.2741C15.7063 16.8499 15.2992 17.3582 14.7954 17.799C14.2916 18.2353 13.7024 18.5772 13.0277 18.8246C12.3529 19.0675 11.604 19.1889 10.7809 19.1889C9.56636 19.1889 8.48232 18.9078 7.52872 18.3455C6.57512 17.7833 5.82394 16.9714 5.27517 15.9098C4.7264 14.8482 4.45202 13.5753 4.45202 12.0909C4.45202 10.602 4.72865 9.32907 5.28192 8.27202C5.83518 7.21046 6.58862 6.39856 7.54221 5.83629C8.49581 5.27403 9.57536 4.9929 10.7809 4.9929C11.55 4.9929 12.2652 5.10085 12.9264 5.31676C13.5877 5.53267 14.1769 5.84979 14.6942 6.26811C15.2115 6.68194 15.6366 7.19022 15.9694 7.79297C16.3068 8.39122 16.5272 9.07493 16.6306 9.8441Z" fill="black"/>
<path d="M17 19.5L12.0039 22.4144C11.3833 22.7764 10.616 22.7777 9.99414 22.4177L2.49793 18.0777C1.88029 17.7202 1.5 17.0606 1.5 16.3469V7.65311C1.5 6.93943 1.88029 6.27983 2.49793 5.92225L9.99414 1.58234C10.616 1.22231 11.3832 1.22356 12.0039 1.58564L17 4.5" stroke="black" stroke-width="1.5"/>
<line x1="24" y1="17.5" x2="17" y2="17.5" stroke="black"/>
<line x1="20.5" y1="14" x2="20.5" y2="21" stroke="black"/>
<line x1="24" y1="6.5" x2="17" y2="6.5" stroke="black"/>
<line x1="20.5" y1="3" x2="20.5" y2="10" stroke="black"/>
</svg>
