<svg width="24" height="24" viewBox="0 0 24 24" fill="none" xmlns="http://www.w3.org/2000/svg">
<path d="M10.8224 8.648H12.7584V18.248C12.7584 18.92 12.6037 19.4107 12.2944 19.72C11.985 20.04 11.4784 20.2 10.7744 20.2H9.67037V18.648H10.8224V8.648ZM11.7984 7.336C11.393 7.336 11.0997 7.25067 10.9184 7.08C10.737 6.89867 10.6464 6.65867 10.6464 6.36V6.04C10.6464 5.74133 10.737 5.50667 10.9184 5.336C11.0997 5.15467 11.393 5.064 11.7984 5.064C12.2037 5.064 12.497 5.15467 12.6784 5.336C12.8597 5.50667 12.9504 5.74133 12.9504 6.04V6.36C12.9504 6.65867 12.8597 6.89867 12.6784 7.08C12.497 7.25067 12.2037 7.336 11.7984 7.336ZM17.3965 17.192C16.7032 17.192 16.0952 17.0693 15.5725 16.824C15.0498 16.568 14.5912 16.1893 14.1965 15.688L15.3805 14.536C15.6472 14.9093 15.9458 15.192 16.2765 15.384C16.6072 15.576 16.9912 15.672 17.4285 15.672C18.2392 15.672 18.6445 15.3307 18.6445 14.648C18.6445 14.3813 18.5752 14.1733 18.4365 14.024C18.3085 13.864 18.0845 13.7573 17.7645 13.704L16.9805 13.56C16.1058 13.4 15.4712 13.128 15.0765 12.744C14.6818 12.36 14.4845 11.8 14.4845 11.064C14.4845 10.1893 14.7405 9.53867 15.2525 9.112C15.7645 8.67467 16.4898 8.456 17.4285 8.456C18.0792 8.456 18.6392 8.56267 19.1085 8.776C19.5885 8.98933 20.0045 9.304 20.3565 9.72L19.2205 10.856C19.0072 10.5893 18.7458 10.376 18.4365 10.216C18.1378 10.056 17.8018 9.976 17.4285 9.976C16.6818 9.976 16.3085 10.312 16.3085 10.984C16.3085 11.2613 16.3832 11.4747 16.5325 11.624C16.6818 11.7627 16.9165 11.8587 17.2365 11.912L18.0365 12.056C18.9112 12.216 19.5352 12.488 19.9085 12.872C20.2925 13.2453 20.4845 13.7733 20.4845 14.456C20.4845 15.32 20.2178 15.992 19.6845 16.472C19.1512 16.952 18.3885 17.192 17.3965 17.192Z" fill="black"/>
<rect x="1.75" y="2.75" width="20.5" height="18.5" rx="4.25" stroke="black" stroke-width="1.5"/>
</svg>
