<svg width="24" height="24" viewBox="0 0 24 24" fill="none" xmlns="http://www.w3.org/2000/svg">
<path d="M5.74 12.68C6.46 12.8133 6.97333 13.1067 7.28 13.56C7.6 14.0133 7.76 14.6667 7.76 15.52V17.78C7.76 18.34 7.84 18.7467 8 19C8.16 19.2533 8.45333 19.38 8.88 19.38H10.74V21.3H8.66C7.46 21.3 6.62667 21.04 6.16 20.52C5.70667 20 5.48 19.2467 5.48 18.26V15.32C5.48 14.76 5.39333 14.34 5.22 14.06C5.04667 13.7667 4.75333 13.62 4.34 13.62H3.26V11.7H4.34C4.75333 11.7 5.04667 11.56 5.22 11.28C5.39333 10.9867 5.48 10.5667 5.48 10.02V7.06C5.48 6.07333 5.70667 5.32 6.16 4.8C6.62667 4.28 7.46 4.02 8.66 4.02H10.74V5.94H8.88C8.45333 5.94 8.16 6.06667 8 6.32C7.84 6.56 7.76 6.96667 7.76 7.54V9.8C7.76 10.6533 7.6 11.3067 7.28 11.76C6.97333 12.2133 6.46 12.52 5.74 12.68ZM18.26 12.64C17.54 12.5067 17.02 12.2133 16.7 11.76C16.38 11.3067 16.22 10.6533 16.22 9.8V7.54C16.22 6.98 16.14 6.57333 15.98 6.32C15.82 6.06667 15.5267 5.94 15.1 5.94H13.26V4.02H15.32C15.92 4.02 16.42 4.08667 16.82 4.22C17.2333 4.35333 17.56 4.54667 17.8 4.8C18.0533 5.05333 18.2333 5.37333 18.34 5.76C18.4467 6.13333 18.5 6.56667 18.5 7.06V10C18.5 10.56 18.5867 10.9867 18.76 11.28C18.9333 11.56 19.2267 11.7 19.64 11.7H20.74V13.62H19.64C19.2267 13.62 18.9333 13.7667 18.76 14.06C18.5867 14.34 18.5 14.7533 18.5 15.3V18.26C18.5 18.7533 18.4467 19.1867 18.34 19.56C18.2333 19.9467 18.0533 20.2667 17.8 20.52C17.56 20.7733 17.2333 20.9667 16.82 21.1C16.42 21.2333 15.92 21.3 15.32 21.3H13.26V19.38H15.1C15.5267 19.38 15.82 19.2533 15.98 19C16.14 18.76 16.22 18.3533 16.22 17.78V15.52C16.22 14.6667 16.38 14.0133 16.7 13.56C17.02 13.1067 17.54 12.8 18.26 12.64Z" fill="black"/>
</svg>
