<svg width="24" height="24" viewBox="0 0 24 24" fill="none" xmlns="http://www.w3.org/2000/svg">
<rect x="1.5" y="5.5" width="21" height="13" rx="2.5" stroke="black"/>
<path d="M6.79954 17.3125L3.98704 6.86364H5.55096L8.36346 17.3125H6.79954ZM10.8191 17.3125L8.00657 6.86364H9.57049L12.383 17.3125H10.8191ZM14.7992 16.1108C14.5179 16.1108 14.2765 16.0114 14.0748 15.8125C13.8759 15.6108 13.7765 15.3693 13.7765 15.0881C13.7765 14.8097 13.8759 14.571 14.0748 14.3722C14.2765 14.1733 14.5179 14.0739 14.7992 14.0739C15.0719 14.0739 15.3105 14.1733 15.5151 14.3722C15.7196 14.571 15.8219 14.8097 15.8219 15.0881C15.8219 15.2756 15.7736 15.4474 15.677 15.6037C15.5833 15.7571 15.4597 15.8807 15.3063 15.9744C15.1529 16.0653 14.9838 16.1108 14.7992 16.1108ZM18.3734 16.1108C18.0922 16.1108 17.8507 16.0114 17.649 15.8125C17.4501 15.6108 17.3507 15.3693 17.3507 15.0881C17.3507 14.8097 17.4501 14.571 17.649 14.3722C17.8507 14.1733 18.0922 14.0739 18.3734 14.0739C18.6461 14.0739 18.8848 14.1733 19.0893 14.3722C19.2939 14.571 19.3961 14.8097 19.3961 15.0881C19.3961 15.2756 19.3478 15.4474 19.2512 15.6037C19.1575 15.7571 19.0339 15.8807 18.8805 15.9744C18.7271 16.0653 18.5581 16.1108 18.3734 16.1108Z" fill="black"/>
</svg>
