<svg width="24" height="24" viewBox="0 0 24 24" fill="none" xmlns="http://www.w3.org/2000/svg">
<line x1="17.5" y1="3" x2="17.5" y2="21" stroke="black"/>
<line x1="15" y1="20.5" x2="20" y2="20.5" stroke="black"/>
<line x1="15" y1="3.5" x2="20" y2="3.5" stroke="black"/>
<path d="M16 18.5H4.5C2.84315 18.5 1.5 17.1569 1.5 15.5V8.5C1.5 6.84315 2.84315 5.5 4.5 5.5H16" stroke="black"/>
<path d="M19 5.5H19.5C21.1569 5.5 22.5 6.84315 22.5 8.5V15.5C22.5 17.1569 21.1569 18.5 19.5 18.5H19" stroke="black"/>
<path d="M6.40359 17H4.09677L7.61168 6.81818H10.3858L13.8958 17H11.589L9.03853 9.14489H8.95898L6.40359 17ZM6.25941 12.9979H11.7083V14.6783H6.25941V12.9979Z" fill="black"/>
</svg>
