<svg width="24" height="24" viewBox="0 0 24 24" fill="none" xmlns="http://www.w3.org/2000/svg">
<path d="M1.5 17.5V12.5V6.5C1.5 4.84315 2.84315 3.5 4.5 3.5H11C11.9443 3.5 12.8334 3.94458 13.4 4.7L14.6 6.3C15.1666 7.05542 16.0557 7.5 17 7.5H19.5C21.1569 7.5 22.5 8.84315 22.5 10.5V17.5C22.5 19.1569 21.1569 20.5 19.5 20.5H4.5C2.84315 20.5 1.5 19.1569 1.5 17.5Z" stroke="black"/>
<circle cx="18" cy="9" r="1.5" stroke="black"/>
<path d="M18 10.5V13M18 13H16.5M18 13V15.5M18 15.5H20M18 15.5V18M18 18H16.5M18 18V20.5" stroke="black"/>
</svg>
